0
SECTION
2
HEADER
9
$INSUNITS
70
4
0
ENDSEC
0
SECTION
2
TABLES
0
TABLE
2
LTYPE
0
LTYPE
72
65
70
0
2
CONTINUOUS
3
______
73
0
40
0
0
LTYPE
72
65
70
0
2
DASHED
3
_ _ _ 
73
2
40
7.5
49
5
49
-2.5
0
LTYPE
72
65
70
0
2
DOTTED
3
. . . 
73
2
40
1.5
49
0.5
49
-1
0
ENDTAB
0
TABLE
2
LAYER
0
ENDTAB
0
ENDSEC
0
SECTION
2
ENTITIES
0
LINE
8
0
6
CONTINUOUS
10
90.25
20
17.25
11
107.75
21
17.25
0
LINE
8
0
6
CONTINUOUS
10
107.75
20
17.25
11
107.75
21
33.75
0
LINE
8
0
6
CONTINUOUS
10
107.75
20
33.75
11
90.25
21
33.75
0
LINE
8
0
6
CONTINUOUS
10
90.25
20
33.75
11
90.25
21
17.25
0
LINE
8
0
6
CONTINUOUS
10
90.25
20
34.25
11
107.75
21
34.25
0
LINE
8
0
6
CONTINUOUS
10
107.75
20
34.25
11
107.75
21
50.75
0
LINE
8
0
6
CONTINUOUS
10
107.75
20
50.75
11
90.25
21
50.75
0
LINE
8
0
6
CONTINUOUS
10
90.25
20
50.75
11
90.25
21
34.25
0
LINE
8
0
6
CONTINUOUS
10
90.25
20
51.25
11
107.75
21
51.25
0
LINE
8
0
6
CONTINUOUS
10
107.75
20
51.25
11
107.75
21
67.75
0
LINE
8
0
6
CONTINUOUS
10
107.75
20
67.75
11
90.25
21
67.75
0
LINE
8
0
6
CONTINUOUS
10
90.25
20
67.75
11
90.25
21
51.25
0
LINE
8
0
6
CONTINUOUS
10
90.25
20
68.25
11
107.75
21
68.25
0
LINE
8
0
6
CONTINUOUS
10
107.75
20
68.25
11
107.75
21
84.75
0
LINE
8
0
6
CONTINUOUS
10
107.75
20
84.75
11
90.25
21
84.75
0
LINE
8
0
6
CONTINUOUS
10
90.25
20
84.75
11
90.25
21
68.25
0
LINE
8
0
6
CONTINUOUS
10
108.25
20
17.25
11
125.75
21
17.25
0
LINE
8
0
6
CONTINUOUS
10
125.75
20
17.25
11
125.75
21
33.75
0
LINE
8
0
6
CONTINUOUS
10
125.75
20
33.75
11
108.25
21
33.75
0
LINE
8
0
6
CONTINUOUS
10
108.25
20
33.75
11
108.25
21
17.25
0
LINE
8
0
6
CONTINUOUS
10
108.25
20
34.25
11
125.75
21
34.25
0
LINE
8
0
6
CONTINUOUS
10
125.75
20
34.25
11
125.75
21
50.75
0
LINE
8
0
6
CONTINUOUS
10
125.75
20
50.75
11
108.25
21
50.75
0
LINE
8
0
6
CONTINUOUS
10
108.25
20
50.75
11
108.25
21
34.25
0
LINE
8
0
6
CONTINUOUS
10
108.25
20
51.25
11
125.75
21
51.25
0
LINE
8
0
6
CONTINUOUS
10
125.75
20
51.25
11
125.75
21
67.75
0
LINE
8
0
6
CONTINUOUS
10
125.75
20
67.75
11
108.25
21
67.75
0
LINE
8
0
6
CONTINUOUS
10
108.25
20
67.75
11
108.25
21
51.25
0
LINE
8
0
6
CONTINUOUS
10
108.25
20
68.25
11
125.75
21
68.25
0
LINE
8
0
6
CONTINUOUS
10
125.75
20
68.25
11
125.75
21
84.75
0
LINE
8
0
6
CONTINUOUS
10
125.75
20
84.75
11
108.25
21
84.75
0
LINE
8
0
6
CONTINUOUS
10
108.25
20
84.75
11
108.25
21
68.25
0
LINE
8
0
6
CONTINUOUS
10
126.25
20
17.25
11
143.75
21
17.25
0
LINE
8
0
6
CONTINUOUS
10
143.75
20
17.25
11
143.75
21
33.75
0
LINE
8
0
6
CONTINUOUS
10
143.75
20
33.75
11
126.25
21
33.75
0
LINE
8
0
6
CONTINUOUS
10
126.25
20
33.75
11
126.25
21
17.25
0
LINE
8
0
6
CONTINUOUS
10
126.25
20
34.25
11
143.75
21
34.25
0
LINE
8
0
6
CONTINUOUS
10
143.75
20
34.25
11
143.75
21
50.75
0
LINE
8
0
6
CONTINUOUS
10
143.75
20
50.75
11
126.25
21
50.75
0
LINE
8
0
6
CONTINUOUS
10
126.25
20
50.75
11
126.25
21
34.25
0
LINE
8
0
6
CONTINUOUS
10
126.25
20
51.25
11
143.75
21
51.25
0
LINE
8
0
6
CONTINUOUS
10
143.75
20
51.25
11
143.75
21
67.75
0
LINE
8
0
6
CONTINUOUS
10
143.75
20
67.75
11
126.25
21
67.75
0
LINE
8
0
6
CONTINUOUS
10
126.25
20
67.75
11
126.25
21
51.25
0
LINE
8
0
6
CONTINUOUS
10
126.25
20
68.25
11
143.75
21
68.25
0
LINE
8
0
6
CONTINUOUS
10
143.75
20
68.25
11
143.75
21
84.75
0
LINE
8
0
6
CONTINUOUS
10
143.75
20
84.75
11
126.25
21
84.75
0
LINE
8
0
6
CONTINUOUS
10
126.25
20
84.75
11
126.25
21
68.25
0
LINE
8
0
6
CONTINUOUS
10
144.25
20
17.25
11
161.75
21
17.25
0
LINE
8
0
6
CONTINUOUS
10
161.75
20
17.25
11
161.75
21
33.75
0
LINE
8
0
6
CONTINUOUS
10
161.75
20
33.75
11
144.25
21
33.75
0
LINE
8
0
6
CONTINUOUS
10
144.25
20
33.75
11
144.25
21
17.25
0
LINE
8
0
6
CONTINUOUS
10
144.25
20
34.25
11
161.75
21
34.25
0
LINE
8
0
6
CONTINUOUS
10
161.75
20
34.25
11
161.75
21
50.75
0
LINE
8
0
6
CONTINUOUS
10
161.75
20
50.75
11
144.25
21
50.75
0
LINE
8
0
6
CONTINUOUS
10
144.25
20
50.75
11
144.25
21
34.25
0
LINE
8
0
6
CONTINUOUS
10
144.25
20
51.25
11
161.75
21
51.25
0
LINE
8
0
6
CONTINUOUS
10
161.75
20
51.25
11
161.75
21
67.75
0
LINE
8
0
6
CONTINUOUS
10
161.75
20
67.75
11
144.25
21
67.75
0
LINE
8
0
6
CONTINUOUS
10
144.25
20
67.75
11
144.25
21
51.25
0
LINE
8
0
6
CONTINUOUS
10
144.25
20
68.25
11
161.75
21
68.25
0
LINE
8
0
6
CONTINUOUS
10
161.75
20
68.25
11
161.75
21
84.75
0
LINE
8
0
6
CONTINUOUS
10
161.75
20
84.75
11
144.25
21
84.75
0
LINE
8
0
6
CONTINUOUS
10
144.25
20
84.75
11
144.25
21
68.25
0
LINE
8
0
6
CONTINUOUS
10
162.25
20
17.25
11
179.75
21
17.25
0
LINE
8
0
6
CONTINUOUS
10
179.75
20
17.25
11
179.75
21
33.75
0
LINE
8
0
6
CONTINUOUS
10
179.75
20
33.75
11
162.25
21
33.75
0
LINE
8
0
6
CONTINUOUS
10
162.25
20
33.75
11
162.25
21
17.25
0
LINE
8
0
6
CONTINUOUS
10
162.25
20
34.25
11
179.75
21
34.25
0
LINE
8
0
6
CONTINUOUS
10
179.75
20
34.25
11
179.75
21
50.75
0
LINE
8
0
6
CONTINUOUS
10
179.75
20
50.75
11
162.25
21
50.75
0
LINE
8
0
6
CONTINUOUS
10
162.25
20
50.75
11
162.25
21
34.25
0
LINE
8
0
6
CONTINUOUS
10
162.25
20
51.25
11
179.75
21
51.25
0
LINE
8
0
6
CONTINUOUS
10
179.75
20
51.25
11
179.75
21
67.75
0
LINE
8
0
6
CONTINUOUS
10
179.75
20
67.75
11
162.25
21
67.75
0
LINE
8
0
6
CONTINUOUS
10
162.25
20
67.75
11
162.25
21
51.25
0
LINE
8
0
6
CONTINUOUS
10
162.25
20
68.25
11
179.75
21
68.25
0
LINE
8
0
6
CONTINUOUS
10
179.75
20
68.25
11
179.75
21
84.75
0
LINE
8
0
6
CONTINUOUS
10
179.75
20
84.75
11
162.25
21
84.75
0
LINE
8
0
6
CONTINUOUS
10
162.25
20
84.75
11
162.25
21
68.25
0
LINE
8
0
6
CONTINUOUS
10
180.25
20
17.25
11
197.75
21
17.25
0
LINE
8
0
6
CONTINUOUS
10
197.75
20
17.25
11
197.75
21
33.75
0
LINE
8
0
6
CONTINUOUS
10
197.75
20
33.75
11
180.25
21
33.75
0
LINE
8
0
6
CONTINUOUS
10
180.25
20
33.75
11
180.25
21
17.25
0
LINE
8
0
6
CONTINUOUS
10
180.25
20
34.25
11
197.75
21
34.25
0
LINE
8
0
6
CONTINUOUS
10
197.75
20
34.25
11
197.75
21
50.75
0
LINE
8
0
6
CONTINUOUS
10
197.75
20
50.75
11
180.25
21
50.75
0
LINE
8
0
6
CONTINUOUS
10
180.25
20
50.75
11
180.25
21
34.25
0
LINE
8
0
6
CONTINUOUS
10
180.25
20
51.25
11
197.75
21
51.25
0
LINE
8
0
6
CONTINUOUS
10
197.75
20
51.25
11
197.75
21
67.75
0
LINE
8
0
6
CONTINUOUS
10
197.75
20
67.75
11
180.25
21
67.75
0
LINE
8
0
6
CONTINUOUS
10
180.25
20
67.75
11
180.25
21
51.25
0
LINE
8
0
6
CONTINUOUS
10
180.25
20
68.25
11
197.75
21
68.25
0
LINE
8
0
6
CONTINUOUS
10
197.75
20
68.25
11
197.75
21
84.75
0
LINE
8
0
6
CONTINUOUS
10
197.75
20
84.75
11
180.25
21
84.75
0
LINE
8
0
6
CONTINUOUS
10
180.25
20
84.75
11
180.25
21
68.25
0
LINE
8
0
6
CONTINUOUS
10
198.25
20
17.25
11
215.75
21
17.25
0
LINE
8
0
6
CONTINUOUS
10
215.75
20
17.25
11
215.75
21
33.75
0
LINE
8
0
6
CONTINUOUS
10
215.75
20
33.75
11
198.25
21
33.75
0
LINE
8
0
6
CONTINUOUS
10
198.25
20
33.75
11
198.25
21
17.25
0
LINE
8
0
6
CONTINUOUS
10
198.25
20
34.25
11
215.75
21
34.25
0
LINE
8
0
6
CONTINUOUS
10
215.75
20
34.25
11
215.75
21
50.75
0
LINE
8
0
6
CONTINUOUS
10
215.75
20
50.75
11
198.25
21
50.75
0
LINE
8
0
6
CONTINUOUS
10
198.25
20
50.75
11
198.25
21
34.25
0
LINE
8
0
6
CONTINUOUS
10
198.25
20
51.25
11
215.75
21
51.25
0
LINE
8
0
6
CONTINUOUS
10
215.75
20
51.25
11
215.75
21
67.75
0
LINE
8
0
6
CONTINUOUS
10
215.75
20
67.75
11
198.25
21
67.75
0
LINE
8
0
6
CONTINUOUS
10
198.25
20
67.75
11
198.25
21
51.25
0
LINE
8
0
6
CONTINUOUS
10
198.25
20
68.25
11
215.75
21
68.25
0
LINE
8
0
6
CONTINUOUS
10
215.75
20
68.25
11
215.75
21
84.75
0
LINE
8
0
6
CONTINUOUS
10
215.75
20
84.75
11
198.25
21
84.75
0
LINE
8
0
6
CONTINUOUS
10
198.25
20
84.75
11
198.25
21
68.25
0
LINE
8
0
6
CONTINUOUS
10
216.25
20
17.25
11
233.75
21
17.25
0
LINE
8
0
6
CONTINUOUS
10
233.75
20
17.25
11
233.75
21
33.75
0
LINE
8
0
6
CONTINUOUS
10
233.75
20
33.75
11
216.25
21
33.75
0
LINE
8
0
6
CONTINUOUS
10
216.25
20
33.75
11
216.25
21
17.25
0
LINE
8
0
6
CONTINUOUS
10
216.25
20
34.25
11
233.75
21
34.25
0
LINE
8
0
6
CONTINUOUS
10
233.75
20
34.25
11
233.75
21
50.75
0
LINE
8
0
6
CONTINUOUS
10
233.75
20
50.75
11
216.25
21
50.75
0
LINE
8
0
6
CONTINUOUS
10
216.25
20
50.75
11
216.25
21
34.25
0
LINE
8
0
6
CONTINUOUS
10
216.25
20
51.25
11
233.75
21
51.25
0
LINE
8
0
6
CONTINUOUS
10
233.75
20
51.25
11
233.75
21
67.75
0
LINE
8
0
6
CONTINUOUS
10
233.75
20
67.75
11
216.25
21
67.75
0
LINE
8
0
6
CONTINUOUS
10
216.25
20
67.75
11
216.25
21
51.25
0
LINE
8
0
6
CONTINUOUS
10
216.25
20
68.25
11
233.75
21
68.25
0
LINE
8
0
6
CONTINUOUS
10
233.75
20
68.25
11
233.75
21
84.75
0
LINE
8
0
6
CONTINUOUS
10
233.75
20
84.75
11
216.25
21
84.75
0
LINE
8
0
6
CONTINUOUS
10
216.25
20
84.75
11
216.25
21
68.25
0
LINE
8
0
6
CONTINUOUS
10
234.25
20
17.25
11
251.75
21
17.25
0
LINE
8
0
6
CONTINUOUS
10
251.75
20
17.25
11
251.75
21
33.75
0
LINE
8
0
6
CONTINUOUS
10
251.75
20
33.75
11
234.25
21
33.75
0
LINE
8
0
6
CONTINUOUS
10
234.25
20
33.75
11
234.25
21
17.25
0
LINE
8
0
6
CONTINUOUS
10
234.25
20
34.25
11
251.75
21
34.25
0
LINE
8
0
6
CONTINUOUS
10
251.75
20
34.25
11
251.75
21
50.75
0
LINE
8
0
6
CONTINUOUS
10
251.75
20
50.75
11
234.25
21
50.75
0
LINE
8
0
6
CONTINUOUS
10
234.25
20
50.75
11
234.25
21
34.25
0
LINE
8
0
6
CONTINUOUS
10
234.25
20
51.25
11
251.75
21
51.25
0
LINE
8
0
6
CONTINUOUS
10
251.75
20
51.25
11
251.75
21
67.75
0
LINE
8
0
6
CONTINUOUS
10
251.75
20
67.75
11
234.25
21
67.75
0
LINE
8
0
6
CONTINUOUS
10
234.25
20
67.75
11
234.25
21
51.25
0
LINE
8
0
6
CONTINUOUS
10
234.25
20
68.25
11
251.75
21
68.25
0
LINE
8
0
6
CONTINUOUS
10
251.75
20
68.25
11
251.75
21
84.75
0
LINE
8
0
6
CONTINUOUS
10
251.75
20
84.75
11
234.25
21
84.75
0
LINE
8
0
6
CONTINUOUS
10
234.25
20
84.75
11
234.25
21
68.25
0
LINE
8
0
6
CONTINUOUS
10
252.25
20
17.25
11
269.75
21
17.25
0
LINE
8
0
6
CONTINUOUS
10
269.75
20
17.25
11
269.75
21
33.75
0
LINE
8
0
6
CONTINUOUS
10
269.75
20
33.75
11
252.25
21
33.75
0
LINE
8
0
6
CONTINUOUS
10
252.25
20
33.75
11
252.25
21
17.25
0
LINE
8
0
6
CONTINUOUS
10
252.25
20
34.25
11
269.75
21
34.25
0
LINE
8
0
6
CONTINUOUS
10
269.75
20
34.25
11
269.75
21
50.75
0
LINE
8
0
6
CONTINUOUS
10
269.75
20
50.75
11
252.25
21
50.75
0
LINE
8
0
6
CONTINUOUS
10
252.25
20
50.75
11
252.25
21
34.25
0
LINE
8
0
6
CONTINUOUS
10
252.25
20
51.25
11
269.75
21
51.25
0
LINE
8
0
6
CONTINUOUS
10
269.75
20
51.25
11
269.75
21
67.75
0
LINE
8
0
6
CONTINUOUS
10
269.75
20
67.75
11
252.25
21
67.75
0
LINE
8
0
6
CONTINUOUS
10
252.25
20
67.75
11
252.25
21
51.25
0
LINE
8
0
6
CONTINUOUS
10
252.25
20
68.25
11
269.75
21
68.25
0
LINE
8
0
6
CONTINUOUS
10
269.75
20
68.25
11
269.75
21
84.75
0
LINE
8
0
6
CONTINUOUS
10
269.75
20
84.75
11
252.25
21
84.75
0
LINE
8
0
6
CONTINUOUS
10
252.25
20
84.75
11
252.25
21
68.25
0
LINE
8
0
6
CONTINUOUS
10
270.25
20
17.25
11
287.75
21
17.25
0
LINE
8
0
6
CONTINUOUS
10
287.75
20
17.25
11
287.75
21
33.75
0
LINE
8
0
6
CONTINUOUS
10
287.75
20
33.75
11
270.25
21
33.75
0
LINE
8
0
6
CONTINUOUS
10
270.25
20
33.75
11
270.25
21
17.25
0
LINE
8
0
6
CONTINUOUS
10
270.25
20
34.25
11
287.75
21
34.25
0
LINE
8
0
6
CONTINUOUS
10
287.75
20
34.25
11
287.75
21
50.75
0
LINE
8
0
6
CONTINUOUS
10
287.75
20
50.75
11
270.25
21
50.75
0
LINE
8
0
6
CONTINUOUS
10
270.25
20
50.75
11
270.25
21
34.25
0
LINE
8
0
6
CONTINUOUS
10
270.25
20
51.25
11
287.75
21
51.25
0
LINE
8
0
6
CONTINUOUS
10
287.75
20
51.25
11
287.75
21
67.75
0
LINE
8
0
6
CONTINUOUS
10
287.75
20
67.75
11
270.25
21
67.75
0
LINE
8
0
6
CONTINUOUS
10
270.25
20
67.75
11
270.25
21
51.25
0
LINE
8
0
6
CONTINUOUS
10
270.25
20
68.25
11
287.75
21
68.25
0
LINE
8
0
6
CONTINUOUS
10
287.75
20
68.25
11
287.75
21
84.75
0
LINE
8
0
6
CONTINUOUS
10
287.75
20
84.75
11
270.25
21
84.75
0
LINE
8
0
6
CONTINUOUS
10
270.25
20
84.75
11
270.25
21
68.25
0
LINE
8
0
6
CONTINUOUS
10
288.25
20
17.25
11
305.75
21
17.25
0
LINE
8
0
6
CONTINUOUS
10
305.75
20
17.25
11
305.75
21
33.75
0
LINE
8
0
6
CONTINUOUS
10
305.75
20
33.75
11
288.25
21
33.75
0
LINE
8
0
6
CONTINUOUS
10
288.25
20
33.75
11
288.25
21
17.25
0
LINE
8
0
6
CONTINUOUS
10
288.25
20
34.25
11
305.75
21
34.25
0
LINE
8
0
6
CONTINUOUS
10
305.75
20
34.25
11
305.75
21
50.75
0
LINE
8
0
6
CONTINUOUS
10
305.75
20
50.75
11
288.25
21
50.75
0
LINE
8
0
6
CONTINUOUS
10
288.25
20
50.75
11
288.25
21
34.25
0
LINE
8
0
6
CONTINUOUS
10
288.25
20
51.25
11
305.75
21
51.25
0
LINE
8
0
6
CONTINUOUS
10
305.75
20
51.25
11
305.75
21
67.75
0
LINE
8
0
6
CONTINUOUS
10
305.75
20
67.75
11
288.25
21
67.75
0
LINE
8
0
6
CONTINUOUS
10
288.25
20
67.75
11
288.25
21
51.25
0
LINE
8
0
6
CONTINUOUS
10
288.25
20
68.25
11
305.75
21
68.25
0
LINE
8
0
6
CONTINUOUS
10
305.75
20
68.25
11
305.75
21
84.75
0
LINE
8
0
6
CONTINUOUS
10
305.75
20
84.75
11
288.25
21
84.75
0
LINE
8
0
6
CONTINUOUS
10
288.25
20
84.75
11
288.25
21
68.25
0
ENDSEC
0
EOF